Love for All and Sharing is the first step to solving all the problems of humanity.

Website I want to share. 
               
   http://www.scenetime.com
 
 
  Credit to EVERYONE for sharing and seeding back
 especially to SCENETIME.COM where i get all my 
 downloads.


 support www.scenetime.com to grow faster.

                             
                                                            
                                                   

.                 ..................................NFO:....................................
                                                     
                                                   
                                                         
                                                          
                                                           
                                                          
                                                          
                                                          
                                                           
                                                         
                                                          
                                                        
                                                      
                                     
                                                 
                                                   
                                             
                                              
                                                     
                                                      
                                                      
                                                      
                                                    
                                                     
                                                   
                                                     
                                                     
                                                      
                                                     
                                                      
                                                    
                 ARTiCHOKE                        
                                                
                      
                                                        
                                                      
                                                      
                                               
                                          
                                                   
                                            
                                                    
                                                       
                                                        
                                                      
                                                
                                                        
                                                 
                                              
                                                  
                                                
                                                  
                                        

      
                                
      SPRiNTER proudly presents...     
                                
      
 
 Viper.Legend.In.Its.Own.Lifetime.2005.DVDRip.XviD-SPRiNTER  http://www.amazon.com/Viper-Legend-its-Own-Lifetime/dp/B0008FXSOC
 Subtitles: N/A

 Date: 2010.08

 Plot: This program tells the whole story from the introduction of that first production car in 1990 through to 	the Vipers 1998 class-winning success at the world famous 24-hr Le Mans sports car race. We hear from 	the key players in the creation of the Viper and from those currently involved in the designing and 	building of Vipers past, present and future.

 Genre: Documentary

      
                 
      Release notes     
                 
      

 Enjoy!


      
           
     Greetings    
           
      


NTX aAF FiCO HNR CiNEFiLE AEN HUMANiSM


      
           
      Details     
           
      

Format                           : AVI
Format/Info                      : Audio Video Interleave
File size                        : 701 MiB
Duration                         : 1h 15mn
Overall bit rate                 : 1 294 Kbps
Writing application              : VirtualDubMod 1.5.10.2 (build 2540/release)
Writing library                  : VirtualDubMod build 2540/release

Video
ID                               : 0
Format                           : MPEG-4 Visual
Format profile                   : AdvancedSimple@L5
Format settings, BVOP            : Yes
Format settings, QPel            : No
Format settings, GMC             : No warppoints
Format settings, Matrix          : Default (H.263)
Codec ID                         : XVID
Codec ID/Hint                    : XviD
Duration                         : 1h 15mn
Bit rate                         : 1 121 Kbps
Width                            : 592 pixels
Height                           : 448 pixels
Display aspect ratio             : 4:3
Frame rate                       : 25.000 fps
Resolution                       : 24 bits
Colorimetry                      : 4:2:0
Scan type                        : Progressive
Bits/(Pixel*Frame)               : 0.169
Stream size                      : 607 MiB (87%)
Writing library                  : XviD 1.2.1 (UTC 2008-12-04)

Audio
ID                               : 1
Format                           : MPEG Audio
Format version                   : Version 1
Format profile                   : Layer 3
Format_Settings_Mode             : Joint stereo / MS Stereo
Codec ID                         : 55
Codec ID/Hint                    : MP3
Duration                         : 1h 15mn
Bit rate mode                    : Variable
Bit rate                         : 160 Kbps
Minimum bit rate                 : 160 Kbps
Channel(s)                       : 2 channels
Sampling rate                    : 48.0 KHz
Resolution                       : 16 bits
Stream size                      : 86.6 MiB (12%)
Alignment                        : Aligned on interleaves
Interleave, duration             : 24 ms (0.60 video frame)
Interleave, preload duration     : 499 ms
Writing library                  : LAME3.95 
Encoding settings                : -m j -V 4 -q 3 -lowpass 18 --vbr-old -b 160